<?xml version="1.0" standalone="no"?>
<!DOCTYPE svg PUBLIC "-//W3C//DTD SVG 20010904//EN"
 "http://www.w3.org/TR/2001/REC-SVG-20010904/DTD/svg10.dtd">
<svg version="1.0" xmlns="http://www.w3.org/2000/svg"
 width="1215.000000pt" height="251.000000pt" viewBox="0 0 1215.000000 251.000000"
 preserveAspectRatio="xMidYMid meet">
<metadata>
Created by potrace 1.14, written by Peter Selinger 2001-2017
</metadata>
<g transform="translate(0.000000,251.000000) scale(0.100000,-0.100000)"
fill="#000000" stroke="none">
<path d="M1195 2408 c-8 -28 -15 -53 -15 -55 0 -2 272 -3 605 -3 598 0 605 0
605 -20 0 -20 -7 -20 -619 -20 l-619 0 -18 -52 c-9 -29 -19 -59 -22 -65 -3
-10 107 -13 532 -13 470 0 536 -2 536 -15 0 -13 -67 -15 -544 -15 l-544 0 -16
-47 c-9 -26 -16 -48 -16 -50 0 -2 194 -3 430 -3 l430 0 0 -25 0 -25 -439 0
-438 0 -27 -61 c-14 -33 -26 -62 -26 -65 0 -2 189 -4 420 -4 273 0 420 -3 420
-10 0 -7 -148 -10 -425 -10 -407 0 -425 -1 -434 -19 -6 -11 -25 -59 -42 -108
-17 -48 -37 -93 -43 -99 -6 -7 -37 -19 -69 -28 -46 -13 -57 -20 -53 -34 3 -9
12 -44 20 -77 l16 -61 -108 -284 -108 -285 -256 -3 -256 -2 -11 -32 c-6 -17
-11 -33 -11 -34 0 -2 199 -4 442 -4 l441 0 49 31 c42 27 48 35 44 58 -3 14 -8
44 -12 65 -4 22 -47 147 -95 279 -86 232 -88 240 -72 264 12 18 18 21 21 12 2
-8 46 -126 97 -264 51 -137 96 -268 99 -290 3 -22 13 -87 21 -144 8 -57 17
-107 20 -110 5 -4 306 78 326 90 8 5 -15 166 -26 177 -3 3 -39 -4 -80 -15 -67
-18 -75 -18 -79 -4 -31 102 -56 266 -56 368 0 112 1 115 18 100 15 -14 40 -17
130 -17 110 0 111 0 155 34 l45 34 28 -19 c25 -16 49 -19 172 -19 133 0 146 2
192 25 l50 25 0 75 c0 74 0 75 25 75 l26 0 -3 -92 -3 -91 -69 -29 c-66 -27
-76 -28 -240 -28 -154 0 -173 -2 -196 -20 -22 -17 -41 -20 -142 -20 l-118 0 0
-125 c0 -69 3 -125 8 -125 4 0 24 5 46 11 36 10 40 9 71 -21 26 -25 38 -30 56
-25 63 18 59 20 59 -32 0 -46 2 -50 35 -66 41 -19 42 -28 15 -73 -21 -33 -21
-33 -1 -72 l20 -39 -30 -17 c-25 -15 -29 -23 -29 -62 0 -42 -1 -44 -29 -44
-23 0 -35 -10 -63 -50 l-35 -49 -39 29 -40 29 -60 -33 -61 -32 -27 48 -27 48
-55 0 -54 0 0 45 0 45 -505 0 c-497 0 -505 0 -505 -20 0 -19 8 -20 263 -22
l263 -3 -113 -295 c-62 -162 -113 -295 -113 -297 0 -2 448 -3 996 -3 793 0
995 3 991 13 -3 6 -24 56 -47 110 l-42 97 -274 0 c-267 0 -274 0 -274 20 0 17
7 20 43 20 40 0 46 4 103 68 33 37 87 101 121 142 34 41 111 134 172 205 l111
130 0 58 0 57 75 37 75 37 0 276 0 275 72 143 c39 78 76 142 81 142 6 0 41
-18 79 -40 92 -53 111 -48 133 28 9 32 22 77 29 101 13 44 36 68 36 37 0 -12
10 -16 35 -16 l35 0 0 144 0 145 52 3 53 3 -116 73 -115 72 -762 0 -761 0 -16
-52z m188 -669 c-5 -3 -39 -17 -78 -29 -38 -12 -146 -49 -238 -82 -93 -33
-171 -57 -175 -53 -19 19 36 46 244 121 205 73 230 80 242 66 6 -9 9 -19 5
-23z"/>
<path d="M3515 2315 c-37 -32 -44 -34 -86 -29 l-46 5 -12 -45 c-11 -43 -13
-45 -56 -52 -25 -3 -45 -8 -45 -11 0 -2 6 -16 14 -32 14 -27 14 -28 -45 -75
-32 -26 -59 -49 -59 -51 0 -2 29 -25 64 -50 59 -44 64 -50 70 -95 6 -43 9 -48
37 -54 47 -9 47 -9 74 43 l25 49 -60 54 -59 53 97 103 97 102 120 -105 120
-105 282 0 283 0 0 30 0 30 -260 0 c-143 0 -260 2 -260 5 0 4 7 19 15 35 15
28 15 28 -23 37 -32 7 -40 15 -62 61 l-24 53 -48 -6 c-26 -4 -48 -3 -48 2 -1
4 -15 25 -33 45 l-32 38 -40 -35z"/>
<path d="M3466 2088 l-56 -63 50 -50 50 -50 -148 -262 -147 -262 -29 35 c-36
43 -84 69 -163 85 -68 14 -147 3 -214 -31 l-35 -18 -42 28 c-33 22 -61 30
-139 39 -54 7 -115 15 -135 18 l-38 6 0 -227 0 -226 549 0 c515 0 550 1 555
18 44 150 116 412 161 587 31 121 58 227 61 236 4 14 -99 106 -212 191 -8 6
-31 -13 -68 -54z"/>
<path d="M3777 1935 c-9 -20 -17 -38 -17 -40 0 -3 142 -5 315 -5 173 0 315 2
315 5 0 2 -8 20 -17 40 l-17 35 -281 0 -281 0 -17 -35z"/>
<path d="M2440 858 c-18 -40 -35 -79 -37 -85 -4 -10 34 -13 170 -13 l175 0
-119 -297 c-65 -164 -119 -299 -119 -300 0 -2 47 -3 104 -3 l104 0 119 298
119 297 186 3 185 2 33 73 c17 39 34 78 37 85 4 9 -92 12 -460 12 l-464 0 -33
-72z"/>
<path d="M3630 868 c-13 -35 -38 -103 -55 -153 l-31 -90 -96 -3 c-106 -3 -103
-1 -133 -97 -7 -22 -16 -48 -20 -57 -6 -15 3 -18 78 -20 l84 -3 -49 -130 c-26
-72 -51 -138 -54 -147 -5 -16 4 -18 89 -18 l95 0 43 103 c23 56 53 126 66 155
l23 54 147 -4 c187 -4 219 -18 274 -122 16 -29 20 -52 17 -95 -2 -31 -8 -64
-12 -73 -7 -17 0 -18 97 -18 l105 0 11 44 c27 110 -5 224 -90 321 l-28 31 72
36 c75 37 220 157 310 258 90 100 136 90 -426 90 l-494 0 -23 -62z m630 -107
c0 -5 -21 -32 -46 -60 -64 -71 -102 -81 -315 -81 l-168 0 25 67 c14 37 28 71
30 75 7 11 474 10 474 -1z"/>
<path d="M4887 813 c-25 -60 -52 -125 -60 -145 l-16 -37 -88 -3 -88 -3 -27
-75 c-15 -41 -27 -80 -27 -87 -1 -8 25 -13 82 -15 l84 -3 -59 -139 c-32 -76
-58 -140 -58 -142 0 -2 42 -4 94 -4 l93 0 68 150 68 150 263 0 262 0 -59 -147
c-32 -81 -59 -148 -59 -150 0 -2 47 -3 104 -3 l104 0 82 198 c46 108 114 274
152 367 39 94 72 176 75 183 4 9 -94 12 -470 12 l-475 0 -45 -107z m693 -115
l-27 -73 -267 -3 c-146 -1 -266 -1 -266 1 0 3 33 102 45 135 3 9 67 12 274 12
l269 0 -28 -72z"/>
<path d="M6091 797 c-27 -68 -94 -234 -147 -368 -53 -134 -98 -250 -101 -256
-4 -10 19 -13 95 -13 l99 0 103 247 c57 137 106 254 110 262 4 8 63 -82 160
-248 l152 -261 108 0 107 0 46 108 c34 81 227 546 264 640 4 9 -20 12 -100 12
l-105 0 -108 -260 c-59 -143 -110 -260 -114 -260 -3 0 -70 117 -149 260 l-143
260 -113 0 -113 0 -51 -123z"/>
<path d="M7270 698 c-51 -123 -95 -229 -97 -235 -4 -10 72 -13 360 -13 l365 0
-28 -72 -27 -73 -365 -3 -364 -2 -32 -65 c-18 -36 -32 -68 -32 -70 0 -3 211
-5 469 -5 437 0 469 1 476 18 4 9 40 105 80 212 40 107 76 203 80 213 7 16
-14 17 -353 17 l-361 0 23 68 23 67 381 3 380 2 23 68 c12 37 24 73 27 80 3 9
-94 12 -466 12 l-470 0 -92 -222z"/>
<path d="M11527 908 c-3 -7 -71 -176 -151 -375 -80 -200 -146 -365 -146 -368
0 -3 189 -5 419 -5 l420 0 19 53 c11 28 23 60 27 70 7 16 -12 17 -303 17
l-311 0 125 307 c68 168 124 308 124 310 0 2 -49 3 -109 3 -78 0 -110 -4 -114
-12z"/>
<path d="M9195 843 c-15 -38 -29 -74 -32 -80 -4 -10 36 -13 180 -13 l185 0
-120 -282 c-66 -156 -122 -289 -125 -295 -4 -10 21 -13 105 -13 l110 0 68 168
c37 92 91 223 119 292 l52 125 171 3 172 2 40 80 40 80 -469 0 -469 0 -27 -67z"/>
<path d="M10358 763 l-55 -148 -91 -3 -91 -3 -30 -80 c-17 -44 -31 -83 -31
-85 0 -2 38 -4 84 -4 l84 0 -59 -135 c-33 -75 -59 -138 -59 -140 0 -3 202 -5
449 -5 l448 0 23 53 c12 28 24 58 27 64 4 10 -69 13 -346 13 l-350 0 32 73 33
72 291 3 290 2 32 73 c18 39 35 78 38 85 4 9 -58 12 -290 12 l-296 0 28 68 28
67 355 3 356 2 27 68 c15 37 29 73 32 80 4 9 -90 12 -450 12 l-455 0 -54 -147z"/>
<path d="M8445 543 c-16 -43 -30 -84 -33 -90 -3 -10 47 -13 231 -13 l234 0 28
78 c16 42 30 83 33 90 3 9 -47 12 -231 12 l-234 0 -28 -77z"/>
</g>
</svg>
